<?xml version="1.0" encoding="utf-8" standalone="no"?>
<!DOCTYPE svg PUBLIC "-//W3C//DTD SVG 1.1//EN"
  "http://www.w3.org/Graphics/SVG/1.1/DTD/svg11.dtd">
<!-- Created with matplotlib (https://matplotlib.org/) -->
<svg height="135.395856pt" version="1.1" viewBox="0 0 294.130881 135.395856" width="294.130881pt" xmlns="http://www.w3.org/2000/svg" xmlns:xlink="http://www.w3.org/1999/xlink">
 <metadata>
  <rdf:RDF xmlns:cc="http://creativecommons.org/ns#" xmlns:dc="http://purl.org/dc/elements/1.1/" xmlns:rdf="http://www.w3.org/1999/02/22-rdf-syntax-ns#">
   <cc:Work>
    <dc:type rdf:resource="http://purl.org/dc/dcmitype/StillImage"/>
    <dc:date>2023-12-25T11:52:05.016159</dc:date>
    <dc:format>image/svg+xml</dc:format>
    <dc:creator>
     <cc:Agent>
      <dc:title>Matplotlib v3.3.2, https://matplotlib.org/</dc:title>
     </cc:Agent>
    </dc:creator>
   </cc:Work>
  </rdf:RDF>
 </metadata>
 <defs>
  <style type="text/css">*{stroke-linecap:butt;stroke-linejoin:round;}</style>
 </defs>
 <g id="figure_1">
  <g id="patch_1">
   <path d="M 0 135.395856 
L 294.130881 135.395856 
L 294.130881 0 
L 0 0 
z
" style="fill:none;"/>
  </g>
  <g id="axes_1">
   <g id="patch_2">
    <path d="M 12.715412 127.151165 
L 138.515412 127.151165 
L 138.515412 20.798438 
L 12.715412 20.798438 
z
" style="fill:#ffffff;"/>
   </g>
   <g id="matplotlib.axis_1">
    <g id="xtick_1">
     <g id="line2d_1">
      <defs>
       <path d="M 0 0 
L 0 3.5 
" id="m7bb57b0858" style="stroke:#000000;stroke-width:0.8;"/>
      </defs>
      <g>
       <use style="stroke:#000000;stroke-width:0.8;" x="18.433594" xlink:href="#m7bb57b0858" y="73.974801"/>
      </g>
     </g>
     <g id="text_1">
      <!-- -100 -->
      <g transform="translate(7.2 88.573239)scale(0.1 -0.1)">
       <defs>
        <path d="M 4.390625 30.609375 
L 29.390625 30.609375 
L 29.390625 23 
L 4.390625 23 
z
" id="DejaVuSerif-45"/>
        <path d="M 14.203125 0 
L 14.203125 5.171875 
L 26.90625 5.171875 
L 26.90625 65.828125 
L 12.203125 56.296875 
L 12.203125 62.703125 
L 29.984375 74.21875 
L 36.71875 74.21875 
L 36.71875 5.171875 
L 49.421875 5.171875 
L 49.421875 0 
z
" id="DejaVuSerif-49"/>
        <path d="M 31.78125 3.421875 
Q 39.265625 3.421875 42.96875 11.625 
Q 46.6875 19.828125 46.6875 36.375 
Q 46.6875 52.984375 42.96875 61.1875 
Q 39.265625 69.390625 31.78125 69.390625 
Q 24.3125 69.390625 20.59375 61.1875 
Q 16.890625 52.984375 16.890625 36.375 
Q 16.890625 19.828125 20.59375 11.625 
Q 24.3125 3.421875 31.78125 3.421875 
z
M 31.78125 -1.421875 
Q 19.921875 -1.421875 13.25 8.53125 
Q 6.59375 18.5 6.59375 36.375 
Q 6.59375 54.296875 13.25 64.25 
Q 19.921875 74.21875 31.78125 74.21875 
Q 43.703125 74.21875 50.34375 64.25 
Q 56.984375 54.296875 56.984375 36.375 
Q 56.984375 18.5 50.34375 8.53125 
Q 43.703125 -1.421875 31.78125 -1.421875 
z
" id="DejaVuSerif-48"/>
       </defs>
       <use xlink:href="#DejaVuSerif-45"/>
       <use x="33.789062" xlink:href="#DejaVuSerif-49"/>
       <use x="97.412109" xlink:href="#DejaVuSerif-48"/>
       <use x="161.035156" xlink:href="#DejaVuSerif-48"/>
      </g>
     </g>
    </g>
    <g id="xtick_2">
     <g id="line2d_2">
      <g>
       <use style="stroke:#000000;stroke-width:0.8;" x="132.79723" xlink:href="#m7bb57b0858" y="73.974801"/>
      </g>
     </g>
     <g id="text_2">
      <!-- 100 -->
      <g transform="translate(123.25348 88.573239)scale(0.1 -0.1)">
       <use xlink:href="#DejaVuSerif-49"/>
       <use x="63.623047" xlink:href="#DejaVuSerif-48"/>
       <use x="127.246094" xlink:href="#DejaVuSerif-48"/>
      </g>
     </g>
    </g>
    <g id="text_3">
     <!-- Δt, ms -->
     <g transform="translate(116.119943 70.251364)scale(0.1 -0.1)">
      <defs>
       <path d="M 67.96875 0 
L 3.8125 0 
L 31.78125 72.90625 
L 39.984375 72.90625 
z
M 54.78125 5.171875 
L 33.40625 61.078125 
L 11.921875 5.171875 
z
" id="DejaVuSerif-916"/>
       <path d="M 10.796875 46.6875 
L 2.875 46.6875 
L 2.875 51.90625 
L 10.796875 51.90625 
L 10.796875 68.015625 
L 19.828125 68.015625 
L 19.828125 51.90625 
L 36.71875 51.90625 
L 36.71875 46.6875 
L 19.828125 46.6875 
L 19.828125 13.71875 
Q 19.828125 7.125 21.09375 5.265625 
Q 22.359375 3.421875 25.78125 3.421875 
Q 29.296875 3.421875 30.90625 5.484375 
Q 32.515625 7.5625 32.625 12.203125 
L 39.40625 12.203125 
Q 39.015625 5.125 35.546875 1.84375 
Q 32.078125 -1.421875 25 -1.421875 
Q 17.234375 -1.421875 14.015625 2.015625 
Q 10.796875 5.46875 10.796875 13.71875 
z
" id="DejaVuSerif-116"/>
       <path d="M 3.609375 -9.71875 
Q 8.203125 -6.34375 10.34375 -1.78125 
Q 12.5 2.78125 12.5 9.28125 
L 12.5 11.078125 
L 22.125 11.078125 
Q 21.734375 2.734375 18.1875 -3.25 
Q 14.65625 -9.234375 7.515625 -13.625 
z
" id="DejaVuSerif-44"/>
       <path id="DejaVuSerif-32"/>
       <path d="M 51.8125 41.796875 
Q 54.390625 47.515625 58.421875 50.421875 
Q 62.453125 53.328125 67.828125 53.328125 
Q 75.984375 53.328125 79.984375 48.265625 
Q 83.984375 43.21875 83.984375 33.015625 
L 83.984375 5.171875 
L 92.09375 5.171875 
L 92.09375 0 
L 67.1875 0 
L 67.1875 5.171875 
L 75 5.171875 
L 75 31.984375 
Q 75 39.9375 72.65625 43.3125 
Q 70.3125 46.6875 64.890625 46.6875 
Q 58.890625 46.6875 55.734375 42.140625 
Q 52.59375 37.59375 52.59375 28.90625 
L 52.59375 5.171875 
L 60.40625 5.171875 
L 60.40625 0 
L 35.796875 0 
L 35.796875 5.171875 
L 43.609375 5.171875 
L 43.609375 32.328125 
Q 43.609375 40.09375 41.265625 43.390625 
Q 38.921875 46.6875 33.5 46.6875 
Q 27.484375 46.6875 24.328125 42.140625 
Q 21.1875 37.59375 21.1875 28.90625 
L 21.1875 5.171875 
L 29 5.171875 
L 29 0 
L 4.109375 0 
L 4.109375 5.171875 
L 12.203125 5.171875 
L 12.203125 46.78125 
L 3.609375 46.78125 
L 3.609375 51.90625 
L 21.1875 51.90625 
L 21.1875 42.671875 
Q 23.6875 47.859375 27.53125 50.59375 
Q 31.390625 53.328125 36.28125 53.328125 
Q 42.328125 53.328125 46.375 50.3125 
Q 50.4375 47.3125 51.8125 41.796875 
z
" id="DejaVuSerif-109"/>
       <path d="M 5.609375 2.875 
L 5.609375 14.984375 
L 10.796875 14.984375 
Q 10.984375 9.1875 14.421875 6.296875 
Q 17.875 3.421875 24.609375 3.421875 
Q 30.671875 3.421875 33.84375 5.6875 
Q 37.015625 7.953125 37.015625 12.3125 
Q 37.015625 15.71875 34.6875 17.8125 
Q 32.375 19.921875 24.90625 22.3125 
L 18.40625 24.515625 
Q 11.71875 26.65625 8.71875 29.875 
Q 5.71875 33.109375 5.71875 38.09375 
Q 5.71875 45.21875 10.9375 49.265625 
Q 16.15625 53.328125 25.390625 53.328125 
Q 29.5 53.328125 34.03125 52.25 
Q 38.578125 51.171875 43.40625 49.125 
L 43.40625 37.796875 
L 38.234375 37.796875 
Q 38.03125 42.828125 34.703125 45.65625 
Q 31.390625 48.484375 25.6875 48.484375 
Q 20.015625 48.484375 17.109375 46.484375 
Q 14.203125 44.484375 14.203125 40.484375 
Q 14.203125 37.203125 16.40625 35.21875 
Q 18.609375 33.25 25.203125 31.203125 
L 32.328125 29 
Q 39.703125 26.703125 42.9375 23.265625 
Q 46.1875 19.828125 46.1875 14.40625 
Q 46.1875 7.03125 40.546875 2.796875 
Q 34.90625 -1.421875 25 -1.421875 
Q 19.96875 -1.421875 15.1875 -0.34375 
Q 10.40625 0.734375 5.609375 2.875 
z
" id="DejaVuSerif-115"/>
      </defs>
      <use xlink:href="#DejaVuSerif-916"/>
      <use x="72.216797" xlink:href="#DejaVuSerif-116"/>
      <use x="112.402344" xlink:href="#DejaVuSerif-44"/>
      <use x="144.189453" xlink:href="#DejaVuSerif-32"/>
      <use x="175.976562" xlink:href="#DejaVuSerif-109"/>
      <use x="270.800781" xlink:href="#DejaVuSerif-115"/>
     </g>
    </g>
   </g>
   <g id="matplotlib.axis_2">
    <g id="ytick_1">
     <g id="line2d_3">
      <defs>
       <path d="M 0 0 
L -3.5 0 
" id="m68679a1cb3" style="stroke:#000000;stroke-width:0.8;"/>
      </defs>
      <g>
       <use style="stroke:#000000;stroke-width:0.8;" x="75.615412" xlink:href="#m68679a1cb3" y="122.31695"/>
      </g>
     </g>
     <g id="text_4">
      <!-- -1 -->
      <g transform="translate(58.873224 126.116169)scale(0.1 -0.1)">
       <use xlink:href="#DejaVuSerif-45"/>
       <use x="33.789062" xlink:href="#DejaVuSerif-49"/>
      </g>
     </g>
    </g>
    <g id="ytick_2">
     <g id="line2d_4">
      <g>
       <use style="stroke:#000000;stroke-width:0.8;" x="75.615412" xlink:href="#m68679a1cb3" y="25.632652"/>
      </g>
     </g>
     <g id="text_5">
      <!-- 1 -->
      <g transform="translate(62.252912 29.431871)scale(0.1 -0.1)">
       <use xlink:href="#DejaVuSerif-49"/>
      </g>
     </g>
    </g>
    <g id="text_6">
     <!-- Δw -->
     <g transform="translate(76.982599 16.591695)scale(0.1 -0.1)">
      <defs>
       <path d="M 48 51.90625 
L 61.28125 11.375 
L 73 46.6875 
L 65.484375 46.6875 
L 65.484375 51.90625 
L 84.28125 51.90625 
L 84.28125 46.6875 
L 78.515625 46.6875 
L 63.09375 0 
L 55.609375 0 
L 42.828125 38.8125 
L 29.984375 0 
L 22.796875 0 
L 7.421875 46.6875 
L 1.609375 46.6875 
L 1.609375 51.90625 
L 25.09375 51.90625 
L 25.09375 46.6875 
L 16.703125 46.6875 
L 28.328125 11.375 
L 41.703125 51.90625 
z
" id="DejaVuSerif-119"/>
      </defs>
      <use xlink:href="#DejaVuSerif-916"/>
      <use x="72.216797" xlink:href="#DejaVuSerif-119"/>
     </g>
    </g>
   </g>
   <g id="line2d_5">
    <path clip-path="url(#pdd51eda37f)" d="M 74.471776 117.716586 
L 72.79063 111.736821 
L 71.109485 106.574525 
L 69.428339 102.117947 
L 67.747194 98.270609 
L 66.066048 94.949226 
L 64.384903 92.081896 
L 62.703757 89.606547 
L 60.742421 87.142988 
L 58.781085 85.067685 
L 56.819748 83.31945 
L 54.858412 81.846736 
L 52.616885 80.445628 
L 50.375357 79.2939 
L 47.853639 78.241344 
L 45.05173 77.314243 
L 41.96963 76.525338 
L 38.327148 75.829651 
L 34.124285 75.259217 
L 29.080848 74.801185 
L 22.636457 74.44519 
L 18.713785 74.308607 
L 18.713785 74.308607 
" style="fill:none;stroke:#000000;stroke-linecap:square;stroke-width:1.5;"/>
   </g>
   <g id="line2d_6">
    <path clip-path="url(#pdd51eda37f)" d="M 76.759048 30.233016 
L 78.440194 36.212782 
L 80.121339 41.375077 
L 81.802485 45.831656 
L 83.48363 49.678993 
L 85.164776 53.000376 
L 86.845921 55.867707 
L 88.527066 58.343055 
L 90.488403 60.806614 
L 92.449739 62.881917 
L 94.411076 64.630153 
L 96.372412 66.102867 
L 98.613939 67.503975 
L 100.855466 68.655703 
L 103.377185 69.708258 
L 106.179094 70.635359 
L 109.261194 71.424264 
L 112.903676 72.119951 
L 117.106539 72.690386 
L 122.149976 73.148418 
L 128.594366 73.504413 
L 132.517039 73.640995 
L 132.517039 73.640995 
" style="fill:none;stroke:#000000;stroke-linecap:square;stroke-width:1.5;"/>
   </g>
   <g id="line2d_7">
    <path d="M 138.515412 73.974801 
" style="fill:none;stroke:#000000;stroke-linecap:square;stroke-width:1.5;"/>
    <defs>
     <path d="M 2 0 
L -2 -2 
L -2 2 
z
" id="m01335c7bee" style="stroke:#000000;stroke-linejoin:miter;"/>
    </defs>
    <g>
     <use style="stroke:#000000;stroke-linejoin:miter;" x="138.515412" xlink:href="#m01335c7bee" y="73.974801"/>
    </g>
   </g>
   <g id="line2d_8">
    <path d="M 75.615412 20.798438 
" style="fill:none;stroke:#000000;stroke-linecap:square;stroke-width:1.5;"/>
    <defs>
     <path d="M 0 -2 
L -2 2 
L 2 2 
z
" id="m12439112c5" style="stroke:#000000;stroke-linejoin:miter;"/>
    </defs>
    <g>
     <use style="stroke:#000000;stroke-linejoin:miter;" x="75.615412" xlink:href="#m12439112c5" y="20.798438"/>
    </g>
   </g>
   <g id="patch_3">
    <path d="M 75.615412 127.151165 
L 75.615412 20.798437 
" style="fill:none;stroke:#000000;stroke-linecap:square;stroke-linejoin:miter;stroke-width:0.8;"/>
   </g>
   <g id="patch_4">
    <path d="M 12.715412 73.974801 
L 138.515412 73.974801 
" style="fill:none;stroke:#000000;stroke-linecap:square;stroke-linejoin:miter;stroke-width:0.8;"/>
   </g>
   <g id="text_7">
    <!-- a) -->
    <g transform="translate(12.715412 14.798438)scale(0.1 -0.1)">
     <defs>
      <path d="M 34.28125 27.484375 
Q 23.390625 27.484375 19.1875 25 
Q 14.984375 22.515625 14.984375 16.5 
Q 14.984375 11.71875 18.140625 8.90625 
Q 21.296875 6.109375 26.703125 6.109375 
Q 34.1875 6.109375 38.703125 11.40625 
Q 43.21875 16.703125 43.21875 25.484375 
L 43.21875 27.484375 
z
M 52.203125 31.203125 
L 52.203125 0 
L 43.21875 0 
L 43.21875 8.296875 
Q 40.140625 3.328125 35.546875 0.953125 
Q 30.953125 -1.421875 24.3125 -1.421875 
Q 15.921875 -1.421875 10.953125 3.296875 
Q 6 8.015625 6 15.921875 
Q 6 25.140625 12.171875 29.828125 
Q 18.359375 34.515625 30.609375 34.515625 
L 43.21875 34.515625 
L 43.21875 35.40625 
Q 43.21875 41.609375 39.140625 45 
Q 35.0625 48.390625 27.6875 48.390625 
Q 23 48.390625 18.546875 47.265625 
Q 14.109375 46.140625 10.015625 43.890625 
L 10.015625 52.203125 
Q 14.9375 54.109375 19.578125 55.046875 
Q 24.21875 56 28.609375 56 
Q 40.484375 56 46.34375 49.84375 
Q 52.203125 43.703125 52.203125 31.203125 
z
" id="DejaVuSans-97"/>
      <path d="M 8.015625 75.875 
L 15.828125 75.875 
Q 23.140625 64.359375 26.78125 53.3125 
Q 30.421875 42.28125 30.421875 31.390625 
Q 30.421875 20.453125 26.78125 9.375 
Q 23.140625 -1.703125 15.828125 -13.1875 
L 8.015625 -13.1875 
Q 14.5 -2 17.703125 9.0625 
Q 20.90625 20.125 20.90625 31.390625 
Q 20.90625 42.671875 17.703125 53.65625 
Q 14.5 64.65625 8.015625 75.875 
z
" id="DejaVuSans-41"/>
     </defs>
     <use xlink:href="#DejaVuSans-97"/>
     <use x="61.279297" xlink:href="#DejaVuSans-41"/>
    </g>
   </g>
  </g>
  <g id="axes_2">
   <g id="patch_5">
    <path d="M 151.315412 127.151165 
L 277.115412 127.151165 
L 277.115412 20.798438 
L 151.315412 20.798438 
z
" style="fill:#ffffff;"/>
   </g>
   <g id="matplotlib.axis_3">
    <g id="xtick_3">
     <g id="line2d_9">
      <g>
       <use style="stroke:#000000;stroke-width:0.8;" x="157.033594" xlink:href="#m7bb57b0858" y="73.974801"/>
      </g>
     </g>
     <g id="text_8">
      <!-- -100 -->
      <g transform="translate(145.8 88.573239)scale(0.1 -0.1)">
       <use xlink:href="#DejaVuSerif-45"/>
       <use x="33.789062" xlink:href="#DejaVuSerif-49"/>
       <use x="97.412109" xlink:href="#DejaVuSerif-48"/>
       <use x="161.035156" xlink:href="#DejaVuSerif-48"/>
      </g>
     </g>
    </g>
    <g id="xtick_4">
     <g id="line2d_10">
      <g>
       <use style="stroke:#000000;stroke-width:0.8;" x="271.39723" xlink:href="#m7bb57b0858" y="73.974801"/>
      </g>
     </g>
     <g id="text_9">
      <!-- 100 -->
      <g transform="translate(261.85348 88.573239)scale(0.1 -0.1)">
       <use xlink:href="#DejaVuSerif-49"/>
       <use x="63.623047" xlink:href="#DejaVuSerif-48"/>
       <use x="127.246094" xlink:href="#DejaVuSerif-48"/>
      </g>
     </g>
    </g>
    <g id="text_10">
     <!-- Δt, ms -->
     <g transform="translate(254.719943 70.251364)scale(0.1 -0.1)">
      <use xlink:href="#DejaVuSerif-916"/>
      <use x="72.216797" xlink:href="#DejaVuSerif-116"/>
      <use x="112.402344" xlink:href="#DejaVuSerif-44"/>
      <use x="144.189453" xlink:href="#DejaVuSerif-32"/>
      <use x="175.976562" xlink:href="#DejaVuSerif-109"/>
      <use x="270.800781" xlink:href="#DejaVuSerif-115"/>
     </g>
    </g>
   </g>
   <g id="matplotlib.axis_4">
    <g id="ytick_3">
     <g id="line2d_11">
      <g>
       <use style="stroke:#000000;stroke-width:0.8;" x="214.215412" xlink:href="#m68679a1cb3" y="122.31695"/>
      </g>
     </g>
     <g id="text_11">
      <!-- -1 -->
      <g transform="translate(197.473224 126.116169)scale(0.1 -0.1)">
       <use xlink:href="#DejaVuSerif-45"/>
       <use x="33.789062" xlink:href="#DejaVuSerif-49"/>
      </g>
     </g>
    </g>
    <g id="ytick_4">
     <g id="line2d_12">
      <g>
       <use style="stroke:#000000;stroke-width:0.8;" x="214.215412" xlink:href="#m68679a1cb3" y="25.632652"/>
      </g>
     </g>
     <g id="text_12">
      <!-- 1 -->
      <g transform="translate(200.852912 29.431871)scale(0.1 -0.1)">
       <use xlink:href="#DejaVuSerif-49"/>
      </g>
     </g>
    </g>
    <g id="text_13">
     <!-- Δw -->
     <g transform="translate(215.582599 16.591695)scale(0.1 -0.1)">
      <use xlink:href="#DejaVuSerif-916"/>
      <use x="72.216797" xlink:href="#DejaVuSerif-119"/>
     </g>
    </g>
   </g>
   <g id="line2d_13">
    <path clip-path="url(#paae4322122)" d="M 213.071776 117.716586 
L 211.39063 111.736821 
L 209.709485 106.574525 
L 208.028339 102.117947 
L 206.347194 98.270609 
L 204.666048 94.949226 
L 202.984903 92.081896 
L 201.303757 89.606547 
L 199.342421 87.142988 
L 197.381085 85.067685 
L 195.419748 83.31945 
L 193.458412 81.846736 
L 191.216885 80.445628 
L 188.975357 79.2939 
L 186.453639 78.241344 
L 183.65173 77.314243 
L 180.56963 76.525338 
L 176.927148 75.829651 
L 172.724285 75.259217 
L 167.680848 74.801185 
L 161.236457 74.44519 
L 157.313785 74.308607 
L 157.313785 74.308607 
" style="fill:none;stroke:#000000;stroke-linecap:square;stroke-width:1.5;"/>
   </g>
   <g id="line2d_14">
    <path clip-path="url(#paae4322122)" d="M 215.359048 117.716586 
L 217.040194 111.736821 
L 218.721339 106.574525 
L 220.402485 102.117947 
L 222.08363 98.270609 
L 223.764776 94.949226 
L 225.445921 92.081896 
L 227.127066 89.606547 
L 229.088403 87.142988 
L 231.049739 85.067685 
L 233.011076 83.31945 
L 234.972412 81.846736 
L 237.213939 80.445628 
L 239.455466 79.2939 
L 241.977185 78.241344 
L 244.779094 77.314243 
L 247.861194 76.525338 
L 251.503676 75.829651 
L 255.706539 75.259217 
L 260.749976 74.801185 
L 267.194366 74.44519 
L 271.117039 74.308607 
L 271.117039 74.308607 
" style="fill:none;stroke:#000000;stroke-linecap:square;stroke-width:1.5;"/>
   </g>
   <g id="line2d_15">
    <path d="M 277.115412 73.974801 
" style="fill:none;stroke:#000000;stroke-linecap:square;stroke-width:1.5;"/>
    <g>
     <use style="stroke:#000000;stroke-linejoin:miter;" x="277.115412" xlink:href="#m01335c7bee" y="73.974801"/>
    </g>
   </g>
   <g id="line2d_16">
    <path d="M 214.215412 20.798438 
" style="fill:none;stroke:#000000;stroke-linecap:square;stroke-width:1.5;"/>
    <g>
     <use style="stroke:#000000;stroke-linejoin:miter;" x="214.215412" xlink:href="#m12439112c5" y="20.798438"/>
    </g>
   </g>
   <g id="patch_6">
    <path d="M 214.215412 127.151165 
L 214.215412 20.798437 
" style="fill:none;stroke:#000000;stroke-linecap:square;stroke-linejoin:miter;stroke-width:0.8;"/>
   </g>
   <g id="patch_7">
    <path d="M 151.315412 73.974801 
L 277.115412 73.974801 
" style="fill:none;stroke:#000000;stroke-linecap:square;stroke-linejoin:miter;stroke-width:0.8;"/>
   </g>
   <g id="text_14">
    <!-- b) -->
    <g transform="translate(151.315412 14.798438)scale(0.1 -0.1)">
     <defs>
      <path d="M 48.6875 27.296875 
Q 48.6875 37.203125 44.609375 42.84375 
Q 40.53125 48.484375 33.40625 48.484375 
Q 26.265625 48.484375 22.1875 42.84375 
Q 18.109375 37.203125 18.109375 27.296875 
Q 18.109375 17.390625 22.1875 11.75 
Q 26.265625 6.109375 33.40625 6.109375 
Q 40.53125 6.109375 44.609375 11.75 
Q 48.6875 17.390625 48.6875 27.296875 
z
M 18.109375 46.390625 
Q 20.953125 51.265625 25.265625 53.625 
Q 29.59375 56 35.59375 56 
Q 45.5625 56 51.78125 48.09375 
Q 58.015625 40.1875 58.015625 27.296875 
Q 58.015625 14.40625 51.78125 6.484375 
Q 45.5625 -1.421875 35.59375 -1.421875 
Q 29.59375 -1.421875 25.265625 0.953125 
Q 20.953125 3.328125 18.109375 8.203125 
L 18.109375 0 
L 9.078125 0 
L 9.078125 75.984375 
L 18.109375 75.984375 
z
" id="DejaVuSans-98"/>
     </defs>
     <use xlink:href="#DejaVuSans-98"/>
     <use x="63.476562" xlink:href="#DejaVuSans-41"/>
    </g>
   </g>
  </g>
 </g>
 <defs>
  <clipPath id="pdd51eda37f">
   <rect height="106.352727" width="125.8" x="12.715412" y="20.798438"/>
  </clipPath>
  <clipPath id="paae4322122">
   <rect height="106.352727" width="125.8" x="151.315412" y="20.798438"/>
  </clipPath>
 </defs>
</svg>
